<mxfile host="app.diagrams.net" modified="2024-01-27T17:14:02.393Z" agent="Mozilla/5.0 (Macintosh; Intel Mac OS X 10_15_7) AppleWebKit/537.36 (KHTML, like Gecko) Chrome/120.0.0.0 Safari/537.36" etag="hS_S9CalK3dEIiel5bq7" version="23.0.2" type="device">
  <diagram name="Page-1" id="USrEfJ2WA07g13JUD4y1">
    <mxGraphModel dx="1377" dy="743" grid="1" gridSize="10" guides="1" tooltips="1" connect="1" arrows="1" fold="1" page="1" pageScale="1" pageWidth="850" pageHeight="1100" math="0" shadow="0">
      <root>
        <mxCell id="0" />
        <mxCell id="1" parent="0" />
        <mxCell id="B_yUs5V0kjTU-R4tsGLp-47" value="" style="rounded=1;whiteSpace=wrap;html=1;arcSize=0;" vertex="1" parent="1">
          <mxGeometry x="10" y="70" width="810" height="590" as="geometry" />
        </mxCell>
        <mxCell id="B_yUs5V0kjTU-R4tsGLp-39" value="" style="rounded=1;whiteSpace=wrap;html=1;fillColor=#ffff88;strokeColor=#36393d;opacity=10;" vertex="1" parent="1">
          <mxGeometry x="335" y="560" width="140" height="80" as="geometry" />
        </mxCell>
        <mxCell id="B_yUs5V0kjTU-R4tsGLp-33" value="" style="rounded=1;html=1;labelPosition=left;verticalLabelPosition=top;align=right;verticalAlign=bottom;whiteSpace=wrap;labelBorderColor=none;labelBackgroundColor=none;spacingTop=0;spacingLeft=23;fillColor=#0434fc;opacity=10;strokeColor=#0434FC;strokeWidth=1;" vertex="1" parent="1">
          <mxGeometry x="125" y="290" width="150" height="230" as="geometry" />
        </mxCell>
        <mxCell id="B_yUs5V0kjTU-R4tsGLp-1" value="" style="sketch=0;outlineConnect=0;fillColor=#FF3333;strokeColor=#b85450;dashed=0;verticalLabelPosition=bottom;verticalAlign=top;align=center;html=1;fontSize=12;fontStyle=0;aspect=fixed;pointerEvents=1;shape=mxgraph.aws4.sagemaker_notebook;" vertex="1" parent="1">
          <mxGeometry x="178" y="450" width="44" height="50.47" as="geometry" />
        </mxCell>
        <mxCell id="B_yUs5V0kjTU-R4tsGLp-2" value="" style="shape=image;verticalLabelPosition=bottom;labelBackgroundColor=default;verticalAlign=top;aspect=fixed;imageAspect=0;image=https://upload.wikimedia.org/wikipedia/commons/7/7c/Kaggle_logo.png;" vertex="1" parent="1">
          <mxGeometry x="20" y="364.01" width="88" height="33.99" as="geometry" />
        </mxCell>
        <mxCell id="B_yUs5V0kjTU-R4tsGLp-3" value="" style="shape=image;verticalLabelPosition=bottom;labelBackgroundColor=default;verticalAlign=top;aspect=fixed;imageAspect=0;image=https://cdn-icons-png.flaticon.com/512/9159/9159105.png;" vertex="1" parent="1">
          <mxGeometry x="169" y="350" width="62" height="62" as="geometry" />
        </mxCell>
        <mxCell id="B_yUs5V0kjTU-R4tsGLp-4" value="" style="endArrow=classic;html=1;rounded=0;exitX=1;exitY=0.5;exitDx=0;exitDy=0;entryX=0;entryY=0.5;entryDx=0;entryDy=0;" edge="1" parent="1" source="B_yUs5V0kjTU-R4tsGLp-2" target="B_yUs5V0kjTU-R4tsGLp-3">
          <mxGeometry width="50" height="50" relative="1" as="geometry">
            <mxPoint x="80" y="450" as="sourcePoint" />
            <mxPoint x="130" y="400" as="targetPoint" />
          </mxGeometry>
        </mxCell>
        <mxCell id="B_yUs5V0kjTU-R4tsGLp-8" value="" style="shape=image;verticalLabelPosition=bottom;labelBackgroundColor=default;verticalAlign=top;aspect=fixed;imageAspect=0;image=https://www.databricks.com/wp-content/uploads/2021/06/MLflow-logo-pos-TM-1.png;" vertex="1" parent="1">
          <mxGeometry x="341" y="580.55" width="128" height="49.45" as="geometry" />
        </mxCell>
        <mxCell id="B_yUs5V0kjTU-R4tsGLp-9" value="model" style="shape=image;verticalLabelPosition=top;labelBackgroundColor=default;verticalAlign=bottom;aspect=fixed;imageAspect=0;image=https://cdn-icons-png.flaticon.com/512/3222/3222625.png;labelPosition=center;align=center;" vertex="1" parent="1">
          <mxGeometry x="307" y="440" width="28" height="28" as="geometry" />
        </mxCell>
        <mxCell id="B_yUs5V0kjTU-R4tsGLp-10" value="" style="rounded=1;whiteSpace=wrap;html=1;verticalAlign=bottom;labelPosition=left;verticalLabelPosition=top;align=right;fillColor=#0434FC;opacity=10;" vertex="1" parent="1">
          <mxGeometry x="532" y="290" width="170" height="350" as="geometry" />
        </mxCell>
        <mxCell id="B_yUs5V0kjTU-R4tsGLp-13" value="" style="endArrow=classic;html=1;rounded=0;exitX=0.5;exitY=1;exitDx=0;exitDy=0;" edge="1" parent="1" source="B_yUs5V0kjTU-R4tsGLp-3" target="B_yUs5V0kjTU-R4tsGLp-1">
          <mxGeometry width="50" height="50" relative="1" as="geometry">
            <mxPoint x="203" y="392" as="sourcePoint" />
            <mxPoint x="202" y="410" as="targetPoint" />
          </mxGeometry>
        </mxCell>
        <mxCell id="B_yUs5V0kjTU-R4tsGLp-15" value="Load dataset" style="rounded=1;whiteSpace=wrap;html=1;fillColor=none;strokeColor=#0434FC;" vertex="1" parent="1">
          <mxGeometry x="552" y="340" width="120" height="50" as="geometry" />
        </mxCell>
        <mxCell id="B_yUs5V0kjTU-R4tsGLp-16" value="Load Model" style="rounded=1;whiteSpace=wrap;html=1;fillColor=none;strokeColor=#0434FC;" vertex="1" parent="1">
          <mxGeometry x="552" y="412" width="120" height="48" as="geometry" />
        </mxCell>
        <mxCell id="B_yUs5V0kjTU-R4tsGLp-17" value="Run predictions" style="rounded=1;whiteSpace=wrap;html=1;fillColor=none;strokeColor=#0434FC;" vertex="1" parent="1">
          <mxGeometry x="552" y="490" width="120" height="50" as="geometry" />
        </mxCell>
        <mxCell id="B_yUs5V0kjTU-R4tsGLp-18" value="Store results" style="rounded=1;whiteSpace=wrap;html=1;fillColor=none;strokeColor=#0434FC;" vertex="1" parent="1">
          <mxGeometry x="552" y="570" width="120" height="50" as="geometry" />
        </mxCell>
        <mxCell id="B_yUs5V0kjTU-R4tsGLp-19" value="Shared volume" style="rounded=1;whiteSpace=wrap;html=1;verticalAlign=top;fillColor=#ffff88;strokeColor=#36393d;opacity=10;" vertex="1" parent="1">
          <mxGeometry x="315" y="90" width="180" height="120" as="geometry" />
        </mxCell>
        <mxCell id="B_yUs5V0kjTU-R4tsGLp-20" value="original dataset" style="shape=image;verticalLabelPosition=bottom;labelBackgroundColor=none;verticalAlign=top;aspect=fixed;imageAspect=0;image=https://cdn-icons-png.flaticon.com/512/9159/9159105.png;" vertex="1" parent="1">
          <mxGeometry x="335" y="120" width="62" height="62" as="geometry" />
        </mxCell>
        <mxCell id="B_yUs5V0kjTU-R4tsGLp-21" value="test dataset" style="shape=image;verticalLabelPosition=bottom;labelBackgroundColor=none;verticalAlign=top;aspect=fixed;imageAspect=0;image=https://cdn-icons-png.flaticon.com/512/9159/9159105.png;" vertex="1" parent="1">
          <mxGeometry x="415" y="119" width="62" height="62" as="geometry" />
        </mxCell>
        <mxCell id="B_yUs5V0kjTU-R4tsGLp-23" value="" style="endArrow=classic;startArrow=classic;html=1;rounded=0;entryX=0;entryY=1;entryDx=0;entryDy=0;exitX=1;exitY=0;exitDx=0;exitDy=0;" edge="1" parent="1" source="B_yUs5V0kjTU-R4tsGLp-33" target="B_yUs5V0kjTU-R4tsGLp-19">
          <mxGeometry width="50" height="50" relative="1" as="geometry">
            <mxPoint x="320" y="320" as="sourcePoint" />
            <mxPoint x="400" y="270" as="targetPoint" />
          </mxGeometry>
        </mxCell>
        <mxCell id="B_yUs5V0kjTU-R4tsGLp-27" value="" style="endArrow=classic;html=1;rounded=0;exitX=0.5;exitY=1;exitDx=0;exitDy=0;entryX=0.5;entryY=0;entryDx=0;entryDy=0;" edge="1" parent="1" source="B_yUs5V0kjTU-R4tsGLp-15" target="B_yUs5V0kjTU-R4tsGLp-16">
          <mxGeometry width="50" height="50" relative="1" as="geometry">
            <mxPoint x="332" y="360" as="sourcePoint" />
            <mxPoint x="382" y="310" as="targetPoint" />
          </mxGeometry>
        </mxCell>
        <mxCell id="B_yUs5V0kjTU-R4tsGLp-28" value="" style="endArrow=classic;html=1;rounded=0;exitX=0.5;exitY=1;exitDx=0;exitDy=0;entryX=0.5;entryY=0;entryDx=0;entryDy=0;" edge="1" parent="1" source="B_yUs5V0kjTU-R4tsGLp-16" target="B_yUs5V0kjTU-R4tsGLp-17">
          <mxGeometry width="50" height="50" relative="1" as="geometry">
            <mxPoint x="332" y="460" as="sourcePoint" />
            <mxPoint x="382" y="410" as="targetPoint" />
          </mxGeometry>
        </mxCell>
        <mxCell id="B_yUs5V0kjTU-R4tsGLp-29" value="" style="endArrow=classic;html=1;rounded=0;exitX=0.5;exitY=1;exitDx=0;exitDy=0;entryX=0.5;entryY=0;entryDx=0;entryDy=0;" edge="1" parent="1" source="B_yUs5V0kjTU-R4tsGLp-17" target="B_yUs5V0kjTU-R4tsGLp-18">
          <mxGeometry width="50" height="50" relative="1" as="geometry">
            <mxPoint x="332" y="460" as="sourcePoint" />
            <mxPoint x="382" y="410" as="targetPoint" />
          </mxGeometry>
        </mxCell>
        <mxCell id="B_yUs5V0kjTU-R4tsGLp-30" value="model" style="shape=image;verticalLabelPosition=top;labelBackgroundColor=default;verticalAlign=bottom;aspect=fixed;imageAspect=0;image=https://cdn-icons-png.flaticon.com/512/3222/3222625.png;labelPosition=center;align=center;" vertex="1" parent="1">
          <mxGeometry x="480" y="400" width="28" height="28" as="geometry" />
        </mxCell>
        <mxCell id="B_yUs5V0kjTU-R4tsGLp-32" value="" style="endArrow=classic;startArrow=classic;html=1;rounded=0;entryX=1;entryY=1;entryDx=0;entryDy=0;exitX=0;exitY=0;exitDx=0;exitDy=0;" edge="1" parent="1" source="B_yUs5V0kjTU-R4tsGLp-10" target="B_yUs5V0kjTU-R4tsGLp-19">
          <mxGeometry width="50" height="50" relative="1" as="geometry">
            <mxPoint x="320" y="420" as="sourcePoint" />
            <mxPoint x="370" y="370" as="targetPoint" />
          </mxGeometry>
        </mxCell>
        <mxCell id="B_yUs5V0kjTU-R4tsGLp-36" value="" style="shape=image;verticalLabelPosition=bottom;labelBackgroundColor=default;verticalAlign=top;aspect=fixed;imageAspect=0;image=https://static-00.iconduck.com/assets.00/docker-icon-icon-2048x1479-cres2he9.png;" vertex="1" parent="1">
          <mxGeometry x="234" y="293.78" width="34" height="24.57" as="geometry" />
        </mxCell>
        <mxCell id="B_yUs5V0kjTU-R4tsGLp-38" value="" style="shape=image;verticalLabelPosition=bottom;labelBackgroundColor=default;verticalAlign=top;aspect=fixed;imageAspect=0;image=https://static-00.iconduck.com/assets.00/docker-icon-icon-2048x1479-cres2he9.png;" vertex="1" parent="1">
          <mxGeometry x="663" y="293.78" width="34" height="24.57" as="geometry" />
        </mxCell>
        <mxCell id="B_yUs5V0kjTU-R4tsGLp-40" value="" style="shape=image;verticalLabelPosition=bottom;labelBackgroundColor=default;verticalAlign=top;aspect=fixed;imageAspect=0;image=https://static-00.iconduck.com/assets.00/docker-icon-icon-2048x1479-cres2he9.png;" vertex="1" parent="1">
          <mxGeometry x="439" y="562.43" width="34" height="24.57" as="geometry" />
        </mxCell>
        <mxCell id="B_yUs5V0kjTU-R4tsGLp-41" value="" style="endArrow=classic;html=1;rounded=0;entryX=0.25;entryY=0;entryDx=0;entryDy=0;" edge="1" parent="1" source="B_yUs5V0kjTU-R4tsGLp-1" target="B_yUs5V0kjTU-R4tsGLp-39">
          <mxGeometry width="50" height="50" relative="1" as="geometry">
            <mxPoint x="340" y="460" as="sourcePoint" />
            <mxPoint x="390" y="410" as="targetPoint" />
            <Array as="points">
              <mxPoint x="370" y="475" />
            </Array>
          </mxGeometry>
        </mxCell>
        <mxCell id="B_yUs5V0kjTU-R4tsGLp-42" value="" style="endArrow=classic;html=1;rounded=0;exitX=0.75;exitY=0;exitDx=0;exitDy=0;entryX=0;entryY=0.5;entryDx=0;entryDy=0;" edge="1" parent="1" source="B_yUs5V0kjTU-R4tsGLp-39" target="B_yUs5V0kjTU-R4tsGLp-16">
          <mxGeometry width="50" height="50" relative="1" as="geometry">
            <mxPoint x="340" y="460" as="sourcePoint" />
            <mxPoint x="390" y="410" as="targetPoint" />
            <Array as="points">
              <mxPoint x="440" y="436" />
            </Array>
          </mxGeometry>
        </mxCell>
        <mxCell id="B_yUs5V0kjTU-R4tsGLp-43" value="Model training" style="text;html=1;strokeColor=none;fillColor=none;align=center;verticalAlign=middle;whiteSpace=wrap;rounded=0;fontStyle=1" vertex="1" parent="1">
          <mxGeometry x="142" y="290" width="89" height="30" as="geometry" />
        </mxCell>
        <mxCell id="B_yUs5V0kjTU-R4tsGLp-44" value="Batch Pipeline" style="text;html=1;strokeColor=none;fillColor=none;align=center;verticalAlign=middle;whiteSpace=wrap;rounded=0;fontStyle=1" vertex="1" parent="1">
          <mxGeometry x="560" y="291.06" width="88" height="30" as="geometry" />
        </mxCell>
        <mxCell id="B_yUs5V0kjTU-R4tsGLp-45" value="Configuration file" style="shape=image;verticalLabelPosition=bottom;labelBackgroundColor=default;verticalAlign=top;aspect=fixed;imageAspect=0;image=https://uxwing.com/wp-content/themes/uxwing/download/file-and-folder-type/yaml-file-format-icon.png;" vertex="1" parent="1">
          <mxGeometry x="730" y="210.84" width="50" height="49.61" as="geometry" />
        </mxCell>
        <mxCell id="B_yUs5V0kjTU-R4tsGLp-46" value="" style="endArrow=classic;html=1;rounded=0;exitX=0;exitY=0.5;exitDx=0;exitDy=0;entryX=0.75;entryY=0;entryDx=0;entryDy=0;" edge="1" parent="1" source="B_yUs5V0kjTU-R4tsGLp-45" target="B_yUs5V0kjTU-R4tsGLp-44">
          <mxGeometry width="50" height="50" relative="1" as="geometry">
            <mxPoint x="340" y="350" as="sourcePoint" />
            <mxPoint x="390" y="300" as="targetPoint" />
            <Array as="points">
              <mxPoint x="626" y="235" />
            </Array>
          </mxGeometry>
        </mxCell>
      </root>
    </mxGraphModel>
  </diagram>
</mxfile>
